<svg width="156" height="35" viewBox="0 0 156 35" fill="none" xmlns="http://www.w3.org/2000/svg">
<path d="M0 0.0196433L10.7275 0L15.015 6.95983L0 6.97948L2.13509 3.49956L0 0.0196433Z" fill="#304478"/>
<path d="M6.38424 19.5104V9.88302L15.02 6.97943V19.0992C15.02 20.7746 15.3399 22.2367 15.9795 23.4856C16.6497 24.7041 17.6092 25.6484 18.8581 26.3185C20.107 26.9582 21.6453 27.2781 23.473 27.2781C25.3312 27.2781 26.8847 26.9582 28.1336 26.3185C29.3825 25.6484 30.3268 24.7041 30.9665 23.4856C31.6062 22.2367 31.926 20.7746 31.926 19.0992V0H40.5161V19.5104C40.5161 22.6175 39.8002 25.3285 38.3686 27.6436C36.9673 29.9587 34.9874 31.7711 32.4286 33.0809C29.8699 34.3603 26.8847 35 23.473 35C20.0614 35 17.0761 34.3603 14.5174 33.0809C11.9587 31.7711 9.96344 29.9587 8.53176 27.6436C7.10008 25.3285 6.38424 22.6175 6.38424 19.5104Z" fill="#304478"/>
<path fill-rule="evenodd" clip-rule="evenodd" d="M43.9217 34.2691V0.000213623H52.5118V22.6486L70.4687 0.000213623H79.6071L67.8392 14.4452L78.2902 31.3927L92.7726 0.000213623H103.967L119.126 32.8593V0.000213623H135.849C139.87 0.000213623 143.388 0.716054 146.404 2.14774C149.42 3.57941 151.765 5.57463 153.441 8.13337C155.147 10.6921 155.999 13.6926 155.999 17.1347C155.999 20.5463 155.147 23.5468 153.441 26.136C151.765 28.6947 149.42 30.6899 146.404 32.1216C143.388 33.5533 139.87 34.2691 135.849 34.2691H110.592L107.539 27.3697H89.1909L86.1473 34.2691H70.286L62.3944 21.1287L51.6893 34.2691H43.9217ZM98.3492 6.60859L104.464 20.4245H92.2546L98.3492 6.60859ZM136.489 26.6386H127.716V7.63076H136.489C138.682 7.63076 140.586 8.02676 142.2 8.81875C143.815 9.61075 145.064 10.7074 145.947 12.1086C146.831 13.5098 147.272 15.1852 147.272 17.1347C147.272 19.0537 146.831 20.7291 145.947 22.1608C145.064 23.562 143.815 24.6586 142.2 25.4506C140.586 26.2426 138.682 26.6386 136.489 26.6386Z" fill="#304478"/>
</svg>
